<svg width="96" height="96" viewBox="0 0 96 96" fill="none" xmlns="http://www.w3.org/2000/svg">
<g clip-path="url(#clip0_14_118)">
<path d="M48 0C21.504 0 0 21.504 0 48C0 74.496 21.504 96 48 96C74.496 96 96 74.496 96 48C96 21.504 74.496 0 48 0ZM48 19.2C57.264 19.2 64.8 26.736 64.8 36C64.8 45.264 57.264 52.8 48 52.8C38.736 52.8 31.2 45.264 31.2 36C31.2 26.736 38.736 19.2 48 19.2ZM48 86.4C38.256 86.4 26.736 82.464 18.528 72.576C26.64 66.24 36.864 62.4 48 62.4C59.136 62.4 69.36 66.24 77.472 72.576C69.264 82.464 57.744 86.4 48 86.4Z" fill="white"/>
</g>
<defs>
<clipPath id="clip0_14_118">
<rect width="96" height="96" fill="white"/>
</clipPath>
</defs>
</svg>
