<svg width="96" height="96" viewBox="0 0 96 96" fill="none" xmlns="http://www.w3.org/2000/svg">
<g clip-path="url(#clip0_84_200)">
<path d="M68 44C69.36 44 70.68 44.16 72 44.36V25.08L42 12L12 25.08V44.72C12 62.88 24.8 79.88 42 84C44.2 83.48 46.32 82.72 48.4 81.8C45.64 77.88 44 73.12 44 68C44 54.76 54.76 44 68 44Z" fill="white"/>
<path d="M68 52C59.16 52 52 59.16 52 68C52 76.84 59.16 84 68 84C76.84 84 84 76.84 84 68C84 59.16 76.84 52 68 52ZM68 57.52C70.48 57.52 72.48 59.56 72.48 62C72.48 64.44 70.44 66.48 68 66.48C65.56 66.48 63.52 64.44 63.52 62C63.52 59.56 65.52 57.52 68 57.52ZM68 79C64.28 79 61.04 77.16 59.04 74.32C59.24 71.44 65.08 70 68 70C70.92 70 76.76 71.44 76.96 74.32C74.96 77.16 71.72 79 68 79Z" fill="white"/>
</g>
<defs>
<clipPath id="clip0_84_200">
<rect width="96" height="96" fill="white"/>
</clipPath>
</defs>
</svg>
