<svg width="96" height="96" viewBox="0 0 96 96" fill="none" xmlns="http://www.w3.org/2000/svg">
<g clip-path="url(#clip0_56_194)">
<path d="M74.0909 52.5818C61.997 52.5818 52.1818 62.3971 52.1818 74.4909C52.1818 86.5848 61.997 96.4 74.0909 96.4C86.1847 96.4 95.9999 86.5848 95.9999 74.4909C95.9999 62.3971 86.1847 52.5818 74.0909 52.5818ZM87.2363 76.6818H76.2818V87.6364H71.8999V76.6818H60.9454V72.3H71.8999V61.3455H76.2818V72.3H87.2363V76.6818Z" fill="#F8F1F1"/>
<path d="M46.4416 61.3454C48.0191 58.0591 50.1224 55.0794 52.7076 52.5818H25.8909V43.8182H74.0909C78.7795 43.8182 83.2489 44.9136 87.2364 46.8416V17.5273C87.2364 12.7073 83.2927 8.76364 78.4727 8.76364H60.1567C58.3164 3.68073 53.4964 0 47.8 0C42.1036 0 37.2836 3.68073 35.4433 8.76364H17.1273C12.3073 8.76364 8.36365 12.7073 8.36365 17.5273V78.8727C8.36365 83.6927 12.3073 87.6364 17.1273 87.6364H46.4416C44.5136 83.6489 43.4182 79.1794 43.4182 74.4909C43.4182 73.0011 43.5496 71.5551 43.7687 70.1091H25.8909V61.3454H46.4416ZM47.8 7.66818C49.5966 7.66818 51.0864 9.158 51.0864 10.9545C51.0864 12.7511 49.5966 14.2409 47.8 14.2409C46.0035 14.2409 44.5136 12.7511 44.5136 10.9545C44.5136 9.158 46.0035 7.66818 47.8 7.66818ZM25.8909 26.2909H69.7091V35.0545H25.8909V26.2909Z" fill="#F8F1F1"/>
</g>
<defs>
<clipPath id="clip0_56_194">
<rect width="96" height="96" fill="white"/>
</clipPath>
</defs>
</svg>
