<svg width="34" height="30" viewBox="0 0 34 30" fill="none" xmlns="http://www.w3.org/2000/svg">
<path d="M5.66667 26.25V27.2344C5.66667 28.0156 5.39907 28.6719 4.86389 29.2031C4.3287 29.7344 3.65185 30 2.83333 30C2.0463 30 1.37763 29.7263 0.827333 29.1788C0.275778 28.6325 0 27.9688 0 27.1875V13.125L3.96667 1.875C4.15556 1.3125 4.4943 0.859375 4.98289 0.515625C5.47022 0.171875 6.01296 0 6.61111 0H27.3889C27.987 0 28.5304 0.171875 29.019 0.515625C29.5063 0.859375 29.8444 1.3125 30.0333 1.875L34 13.125V27.2344C34 28.0156 33.7324 28.6719 33.1972 29.2031C32.662 29.7344 31.9852 30 31.1667 30C30.3796 30 29.711 29.7263 29.1607 29.1788C28.6091 28.6325 28.3333 27.9688 28.3333 27.1875V26.25H5.66667ZM5.28889 9.375H28.7111L26.7278 3.75H7.27222L5.28889 9.375ZM8.5 20.625C9.28704 20.625 9.9557 20.3513 10.506 19.8038C11.0576 19.2575 11.3333 18.5938 11.3333 17.8125C11.3333 17.0312 11.0576 16.3675 10.506 15.8212C9.9557 15.2737 9.28704 15 8.5 15C7.71296 15 7.0443 15.2737 6.494 15.8212C5.94244 16.3675 5.66667 17.0312 5.66667 17.8125C5.66667 18.5938 5.94244 19.2575 6.494 19.8038C7.0443 20.3513 7.71296 20.625 8.5 20.625ZM25.5 20.625C26.287 20.625 26.9557 20.3513 27.506 19.8038C28.0576 19.2575 28.3333 18.5938 28.3333 17.8125C28.3333 17.0312 28.0576 16.3675 27.506 15.8212C26.9557 15.2737 26.287 15 25.5 15C24.713 15 24.0443 15.2737 23.494 15.8212C22.9424 16.3675 22.6667 17.0312 22.6667 17.8125C22.6667 18.5938 22.9424 19.2575 23.494 19.8038C24.0443 20.3513 24.713 20.625 25.5 20.625Z" fill="#DB6400"/>
</svg>
