<svg width="96" height="96" viewBox="0 0 96 96" fill="none" xmlns="http://www.w3.org/2000/svg">
<path d="M22.6667 96C18.5926 96 15.1296 94.6 12.2778 91.8C9.42593 89 8 85.6 8 81.6V76.8C8 74.16 8.95741 71.9 10.8722 70.02C12.787 68.14 15.0889 67.2 17.7778 67.2H22.6667V9.6C22.6667 6.96 23.6241 4.7 25.5389 2.82C27.4537 0.94 29.7556 0 32.4444 0H86.2222C88.9111 0 91.213 0.94 93.1278 2.82C95.0426 4.7 96 6.96 96 9.6V81.6C96 85.6 94.5741 89 91.7222 91.8C88.8704 94.6 85.4074 96 81.3333 96H22.6667ZM81.3333 86.4C82.7185 86.4 83.8796 85.94 84.8167 85.02C85.7537 84.1 86.2222 82.96 86.2222 81.6V9.6H32.4444V67.2H66.6667C69.3556 67.2 71.6574 68.14 73.5722 70.02C75.487 71.9 76.4444 74.16 76.4444 76.8V81.6C76.4444 82.96 76.913 84.1 77.85 85.02C78.787 85.94 79.9481 86.4 81.3333 86.4ZM42.2222 33.6C40.837 33.6 39.6759 33.14 38.7389 32.22C37.8019 31.3 37.3333 30.16 37.3333 28.8C37.3333 27.44 37.8019 26.3 38.7389 25.38C39.6759 24.46 40.837 24 42.2222 24H76.4444C77.8296 24 78.9907 24.46 79.9278 25.38C80.8648 26.3 81.3333 27.44 81.3333 28.8C81.3333 30.16 80.8648 31.3 79.9278 32.22C78.9907 33.14 77.8296 33.6 76.4444 33.6H42.2222ZM42.2222 48C40.837 48 39.6759 47.54 38.7389 46.62C37.8019 45.7 37.3333 44.56 37.3333 43.2C37.3333 41.84 37.8019 40.7 38.7389 39.78C39.6759 38.86 40.837 38.4 42.2222 38.4H76.4444C77.8296 38.4 78.9907 38.86 79.9278 39.78C80.8648 40.7 81.3333 41.84 81.3333 43.2C81.3333 44.56 80.8648 45.7 79.9278 46.62C78.9907 47.54 77.8296 48 76.4444 48H42.2222Z" fill="#DB6400"/>
</svg>
