<svg width="96" height="96" viewBox="0 0 96 96" fill="none" xmlns="http://www.w3.org/2000/svg">
<g clip-path="url(#clip0_56_206)">
<path d="M55.2857 11C32.8024 11 14.5714 30.0306 14.5714 53.5H1L18.5976 71.8694L18.9143 72.5306L37.1905 53.5H23.619C23.619 35.225 37.7786 20.4444 55.2857 20.4444C72.7929 20.4444 86.9524 35.225 86.9524 53.5C86.9524 71.775 72.7929 86.5556 55.2857 86.5556C46.5548 86.5556 38.6381 82.825 32.9381 76.8278L26.5143 83.5333C33.8881 91.2306 44.0214 96 55.2857 96C77.769 96 96 76.9694 96 53.5C96 30.0306 77.769 11 55.2857 11ZM50.7619 34.6111V58.2222L70.1238 70.2167L73.381 64.5028L57.5476 54.6806V34.6111H50.7619Z" fill="#F8F1F1"/>
</g>
<defs>
<clipPath id="clip0_56_206">
<rect width="96" height="96" fill="white"/>
</clipPath>
</defs>
</svg>
