<svg width="30" height="28" viewBox="0 0 30 28" fill="none" xmlns="http://www.w3.org/2000/svg">
<path d="M1.40986 6.05038L0 4.64393L4.6552 0L9.31041 4.64393L7.90055 6.05038L5.74585 3.9009C5.46654 4.98891 5.32023 6.12999 5.32023 7.2976C5.32023 10.5086 6.41088 13.4674 8.24636 15.8292L6.8232 17.2489C4.6419 14.5289 3.32515 11.0658 3.32515 7.2976C3.32515 6.07691 3.45815 4.88276 3.72416 3.74168L1.40986 6.05038ZM17.0912 14.091L13.5267 6.9659C13.0346 5.98404 11.8375 5.58598 10.8533 6.07691C9.85573 6.58111 9.45671 7.77527 9.94883 8.75712L16.3464 21.4948L12.037 22.5562C11.5981 22.6756 11.2523 22.9941 11.106 23.4319L10.6405 24.918L18.8735 27.9034C19.5386 28.129 20.576 27.9299 21.2011 27.6115L28.5297 23.9627C29.7135 23.3656 30.2854 21.999 29.8598 20.7517L27.9578 15.0861C27.5987 13.9981 26.5746 13.2684 25.4307 13.2684H19.3656C18.9533 13.2684 18.541 13.3613 18.1819 13.547L17.0912 14.091Z" fill="#CFCFCF"/>
</svg>
