<svg width="37" height="37" viewBox="0 0 37 37" fill="none" xmlns="http://www.w3.org/2000/svg">
<path d="M35.25 18.1176C34.7542 18.1176 34.3385 17.9485 34.0031 17.6103C33.6677 17.2721 33.5 16.8529 33.5 16.3529C33.5 15.8529 33.6677 15.4338 34.0031 15.0956C34.3385 14.7574 34.7542 14.5882 35.25 14.5882C35.7458 14.5882 36.1615 14.7574 36.4969 15.0956C36.8323 15.4338 37 15.8529 37 16.3529C37 16.8529 36.8323 17.2721 36.4969 17.6103C36.1615 17.9485 35.7458 18.1176 35.25 18.1176ZM35.25 12.8235C34.7542 12.8235 34.3385 12.6544 34.0031 12.3162C33.6677 11.9779 33.5 11.5588 33.5 11.0588V5.76471C33.5 5.26471 33.6677 4.84559 34.0031 4.50735C34.3385 4.16912 34.7542 4 35.25 4C35.7458 4 36.1615 4.16912 36.4969 4.50735C36.8323 4.84559 37 5.26471 37 5.76471V11.0588C37 11.5588 36.8323 11.9779 36.4969 12.3162C36.1615 12.6544 35.7458 12.8235 35.25 12.8235ZM16 19.8824C14.075 19.8824 12.4271 19.1912 11.0562 17.8088C9.68542 16.4265 9 14.7647 9 12.8235C9 10.8824 9.68542 9.22059 11.0562 7.83824C12.4271 6.45588 14.075 5.76471 16 5.76471C17.925 5.76471 19.5729 6.45588 20.9437 7.83824C22.3146 9.22059 23 10.8824 23 12.8235C23 14.7647 22.3146 16.4265 20.9437 17.8088C19.5729 19.1912 17.925 19.8824 16 19.8824ZM2 30.4706V29.0588C2 28.0588 2.25521 27.1397 2.76562 26.3015C3.27604 25.4632 3.95417 24.8235 4.8 24.3824C6.60833 23.4706 8.44583 22.7868 10.3125 22.3309C12.1792 21.875 14.075 21.6471 16 21.6471C17.925 21.6471 19.8208 21.875 21.6875 22.3309C23.5542 22.7868 25.3917 23.4706 27.2 24.3824C28.0458 24.8235 28.724 25.4632 29.2344 26.3015C29.7448 27.1397 30 28.0588 30 29.0588V30.4706C30 31.4412 29.6573 32.2721 28.9719 32.9632C28.2865 33.6544 27.4625 34 26.5 34H5.5C4.5375 34 3.71354 33.6544 3.02812 32.9632C2.34271 32.2721 2 31.4412 2 30.4706Z" fill="#DB6400"/>
</svg>
