<svg width="37" height="37" viewBox="0 0 37 37" fill="none" xmlns="http://www.w3.org/2000/svg">
<path d="M16.4286 9.4H20.5714V6.2H16.4286V9.4ZM18.5 19C15.8762 19 13.3732 18.58 10.9911 17.74C8.60893 16.9 6.27857 15.96 4 14.92V12.6C4 11.72 4.40565 10.9667 5.21696 10.34C6.02827 9.71333 7.00357 9.4 8.14286 9.4H12.2857V4.6C12.2857 4.14667 12.4842 3.76667 12.8813 3.46C13.2783 3.15333 13.7702 3 14.3571 3H22.6429C23.2298 3 23.7217 3.15333 24.1188 3.46C24.5158 3.76667 24.7143 4.14667 24.7143 4.6V9.4H28.8571C29.9964 9.4 30.9717 9.71333 31.783 10.34C32.5943 10.9667 33 11.72 33 12.6V14.92C30.7214 15.96 28.3911 16.9 26.0089 17.74C23.6268 18.58 21.1238 19 18.5 19ZM8.14286 33.4C7.00357 33.4 6.02827 33.0867 5.21696 32.46C4.40565 31.8333 4 31.08 4 30.2V18.52C5.93333 19.4267 7.92708 20.2 9.98125 20.84C12.0354 21.48 14.1845 21.9067 16.4286 22.12V22.2C16.4286 22.6533 16.6271 23.0333 17.0241 23.34C17.4211 23.6467 17.9131 23.8 18.5 23.8C19.0869 23.8 19.5789 23.6467 19.9759 23.34C20.3729 23.0333 20.5714 22.6533 20.5714 22.2V22.12C22.8155 21.9067 24.9646 21.48 27.0188 20.84C29.0729 20.2 31.0667 19.4267 33 18.52V30.2C33 31.08 32.5943 31.8333 31.783 32.46C30.9717 33.0867 29.9964 33.4 28.8571 33.4C28.8571 33.8533 28.6586 34.2333 28.2616 34.54C27.8646 34.8467 27.3726 35 26.7857 35C26.2333 35 25.8449 34.8067 25.6205 34.42C25.3961 34.0333 25.094 33.6933 24.7143 33.4H12.2857C12.2857 33.8533 12.0872 34.2333 11.6902 34.54C11.2932 34.8467 10.8012 35 10.2143 35C9.6619 35 9.27351 34.8067 9.04911 34.42C8.8247 34.0333 8.52262 33.6933 8.14286 33.4Z" fill="#DB6400"/>
</svg>
