<svg width="95" height="95" viewBox="0 0 95 95" fill="none" xmlns="http://www.w3.org/2000/svg">
<path d="M8.63636 95C6.26136 95 4.22894 94.1148 2.53909 92.3445C0.846364 90.5712 0 88.4405 0 85.9524V40.7143C0 39.4325 0.414545 38.3574 1.24364 37.4888C2.06985 36.6233 3.0947 36.1905 4.31818 36.1905C5.54167 36.1905 6.56796 36.6233 7.39705 37.4888C8.22326 38.3574 8.63636 39.4325 8.63636 40.7143V85.9524H77.7273C78.9508 85.9524 79.9756 86.3867 80.8018 87.2552C81.6309 88.1208 82.0455 89.1944 82.0455 90.4762C82.0455 91.7579 81.6309 92.8316 80.8018 93.6971C79.9756 94.5657 78.9508 95 77.7273 95H8.63636ZM25.9091 76.9048C23.5341 76.9048 21.5017 76.0196 19.8118 74.2493C18.1191 72.476 17.2727 70.3452 17.2727 67.8571V27.1429C17.2727 24.6548 18.1191 22.5256 19.8118 20.7552C21.5017 18.9819 23.5341 18.0952 25.9091 18.0952H38.8636V9.04762C38.8636 6.55952 39.71 4.42881 41.4027 2.65548C43.0926 0.885159 45.125 0 47.5 0H64.7727C67.1477 0 69.1816 0.885159 70.8743 2.65548C72.5642 4.42881 73.4091 6.55952 73.4091 9.04762V18.0952H86.3636C88.7386 18.0952 90.7725 18.9819 92.4652 20.7552C94.1551 22.5256 95 24.6548 95 27.1429V67.8571C95 70.3452 94.1551 72.476 92.4652 74.2493C90.7725 76.0196 88.7386 76.9048 86.3636 76.9048H25.9091ZM47.5 18.0952H64.7727V9.04762H47.5V18.0952Z" fill="#F8F1F1"/>
</svg>
